<?xml version="1.0" encoding="UTF-8"?>
<svg version="1.1" xmlns="http://www.w3.org/2000/svg" width="200" height="200">
<path d="M0 0 C66 0 132 0 200 0 C200 66 200 132 200 200 C134 200 68 200 0 200 C0 134 0 68 0 0 Z " fill="#F2993E" transform="translate(0,0)"/>
<path d="M0 0 C1.670625 0.99 1.670625 0.99 3.375 2 C3.375 2.66 3.375 3.32 3.375 4 C4.695 3.67 6.015 3.34 7.375 3 C7.519375 3.9075 7.66375 4.815 7.8125 5.75 C8.27907712 8.80340304 8.27907712 8.80340304 8.9375 10.9375 C10.16398696 16.71950995 9.42770781 21.039216 6.65625 26.13671875 C4.25634391 29.62682609 1.1729356 32.1010322 -2.625 34 C-14.08201054 35.32311933 -14.08201054 35.32311933 -19.22265625 32.6484375 C-23.76747583 28.7917121 -27.00850041 24.71170886 -28.00390625 18.71875 C-28.44401991 12.65079991 -27.05237628 8.74569954 -23.38671875 3.91796875 C-16.9792328 -3.05780864 -8.5040064 -4.21437486 0 0 Z " fill="#EB9341" transform="translate(109.625,72)"/>
<path d="M0 0 C0.02835938 0.80824219 0.05671875 1.61648437 0.0859375 2.44921875 C0.39286777 5.88766728 0.80149572 8.75475425 2 12 C5.07317186 14.48804808 8.24925313 15.80972609 12 17 C10.34808509 18.35156675 8.67705908 19.679762 7 21 C6.44570312 21.46664062 5.89140625 21.93328125 5.3203125 22.4140625 C0.81284916 26 0.81284916 26 -3.0625 26 C-11.20545746 23.22792937 -11.20545746 23.22792937 -13.375 19.875 C-13.58125 18.92625 -13.7875 17.9775 -14 17 C-14.26296875 15.98873047 -14.26296875 15.98873047 -14.53125 14.95703125 C-14.94919594 12.19763817 -14.96233768 10.64205437 -14 8 C-10.36378426 4.71216421 -5.12601086 0 0 0 Z " fill="#D3824D" transform="translate(102,75)"/>
<path d="M0 0 C1.9296875 1.09375 1.9296875 1.09375 4.8046875 3.09375 C4.8046875 3.75375 4.8046875 4.41375 4.8046875 5.09375 C2.63594498 4.58771008 0.80501123 4.09391187 -1.1953125 3.09375 C-6.45081921 2.56991682 -10.85997436 2.47377158 -15.6953125 4.71875 C-19.73909975 8.56034789 -21.3413158 12.00221579 -21.6328125 17.53125 C-21.43377739 22.44907591 -20.22976632 25.20342459 -17.1953125 29.09375 C-12.47498817 31.85469442 -8.62376917 32.68594527 -3.1953125 32.09375 C2.14208223 30.10530883 5.25802574 27.18707352 7.8046875 22.09375 C7.83523942 19.26551509 7.73751456 16.45169268 7.64453125 13.625 C7.8046875 11.09375 7.8046875 11.09375 9.8046875 9.09375 C12.08638228 13.79974548 12.81425319 18.08226145 11.1171875 23.14453125 C8.62532381 28.65777966 5.29274385 32.34972183 -0.1953125 35.09375 C-11.65232304 36.41686933 -11.65232304 36.41686933 -16.79296875 33.7421875 C-21.33778833 29.8854621 -24.57881291 25.80545886 -25.57421875 19.8125 C-26.01433241 13.74454991 -24.62268878 9.83944954 -20.95703125 5.01171875 C-15.41564891 -1.02113874 -7.84287998 -3.23763017 0 0 Z " fill="#713B7E" transform="translate(107.1953125,70.90625)"/>
<path d="M0 0 C2.3125 1.0625 2.3125 1.0625 4 2 C4.33 1.34 4.66 0.68 5 0 C5 0.66 5 1.32 5 2 C6.32 1.67 7.64 1.34 9 1 C8.89171875 1.85271484 8.89171875 1.85271484 8.78125 2.72265625 C8.20416899 7.52364968 7.89714162 12.16565627 8 17 C4.69236356 18.13468246 3.01021712 17.95742465 -0.125 16.4375 C-3.02364339 14.86179961 -3.86568339 14.25695352 -5.4375 11.25 C-6.08646904 7.50040111 -6.60836597 3.78579566 -7 0 C-4.27761216 -1.36119392 -2.90677521 -0.76129827 0 0 Z " fill="#E99242" transform="translate(108,74)"/>
<path d="M0 0 C0.804375 0.33 1.60875 0.66 2.4375 1 C3.35789062 1.37318359 3.35789062 1.37318359 4.296875 1.75390625 C6.02462893 2.46919638 7.73286357 3.23124239 9.4375 4 C7.78558509 5.35156675 6.11455908 6.679762 4.4375 8 C3.88320312 8.46664062 3.32890625 8.93328125 2.7578125 9.4140625 C-1.74965084 13 -1.74965084 13 -5.625 13 C-8.7815886 11.92541665 -11.6392805 10.60081068 -14.5625 9 C-10.90461399 4.88487824 -5.7672401 0 0 0 Z " fill="#663383" transform="translate(104.5625,88)"/>
<path d="M0 0 C1.98 0 3.96 0 6 0 C4.68 0.33 3.36 0.66 2 1 C2 1.99 2 2.98 2 4 C3.62463842 4.05395478 5.24978541 4.09277195 6.875 4.125 C7.77992187 4.14820312 8.68484375 4.17140625 9.6171875 4.1953125 C12.18806994 4.24324836 12.18806994 4.24324836 14 2 C16.625 1.875 16.625 1.875 19 2 C19 2.66 19 3.32 19 4 C17.68 4 16.36 4 15 4 C15.33 4.99 15.66 5.98 16 7 C16.99 7.33 17.98 7.66 19 8 C19 8.66 19 9.32 19 10 C16.03 9.505 16.03 9.505 13 9 C13 8.34 13 7.68 13 7 C11.02 7 9.04 7 7 7 C7 7.99 7 8.98 7 10 C4.69 10 2.38 10 0 10 C0 6.7 0 3.4 0 0 Z " fill="#F0B67B" transform="translate(100,111)"/>
<path d="M0 0 C0.66 0 1.32 0 2 0 C2.66 4.29 3.32 8.58 4 13 C-6.5 20 -6.5 20 -11 20 C-11.96070434 17.11788698 -12.10581883 15.30149956 -12.0625 12.3125 C-12.05347656 11.50425781 -12.04445313 10.69601563 -12.03515625 9.86328125 C-12.02355469 9.24839844 -12.01195313 8.63351563 -12 8 C-11.01 8 -10.02 8 -9 8 C-9.33 11.3 -9.66 14.6 -10 18 C-9.37351562 17.566875 -8.74703125 17.13375 -8.1015625 16.6875 C-7.28429687 16.130625 -6.46703125 15.57375 -5.625 15 C-4.81289062 14.443125 -4.00078125 13.88625 -3.1640625 13.3125 C-1 12 -1 12 1 12 C0.67 8.04 0.34 4.08 0 0 Z " fill="#9F5C67" transform="translate(100,75)"/>
<path d="M0 0 C1.64574566 -0.02688151 3.29161413 -0.04634123 4.9375 -0.0625 C5.85402344 -0.07410156 6.77054688 -0.08570312 7.71484375 -0.09765625 C10 0 10 0 11 1 C11.04092937 3.33297433 11.04241723 5.66705225 11 8 C8.69 8 6.38 8 4 8 C4 6.02 4 4.04 4 2 C3.34 2 2.68 2 2 2 C2 3.98 2 5.96 2 8 C1.34 8 0.68 8 0 8 C0 5.36 0 2.72 0 0 Z " fill="#EEDBC7" transform="translate(141,113)"/>
<path d="M0 0 C0.94875 0.04125 1.8975 0.0825 2.875 0.125 C3.125 6.75 3.125 6.75 0.875 10.125 C-1.75 10.3125 -1.75 10.3125 -4.125 10.125 C-4.125 8.805 -4.125 7.485 -4.125 6.125 C-4.33125 5.42375 -4.5375 4.7225 -4.75 4 C-4.87375 3.38125 -4.9975 2.7625 -5.125 2.125 C-3.125 0.125 -3.125 0.125 0 0 Z " fill="#EFDAC5" transform="translate(92.125,112.875)"/>
<path d="M0 0 C1.64574566 -0.02688151 3.29161413 -0.04634123 4.9375 -0.0625 C5.85402344 -0.07410156 6.77054688 -0.08570312 7.71484375 -0.09765625 C10 0 10 0 11 1 C11.04092937 3.33297433 11.04241723 5.66705225 11 8 C10.34 8 9.68 8 9 8 C9 6.02 9 4.04 9 2 C8.34 2 7.68 2 7 2 C7 3.98 7 5.96 7 8 C6.34 8 5.68 8 5 8 C5 6.02 5 4.04 5 2 C4.34 2 3.68 2 3 2 C3 3.98 3 5.96 3 8 C2.01 8 1.02 8 0 8 C0 5.36 0 2.72 0 0 Z " fill="#EEE5DB" transform="translate(128,113)"/>
<path d="M0 0 C0.99 0 1.98 0 3 0 C3 0.66 3 1.32 3 2 C3.66 2 4.32 2 5 2 C5 2.66 5 3.32 5 4 C4.34 4 3.68 4 3 4 C3 5.32 3 6.64 3 8 C3.66 8 4.32 8 5 8 C5 8.66 5 9.32 5 10 C3.68 9.67 2.36 9.34 1 9 C0.67 7.35 0.34 5.7 0 4 C-0.99 4 -1.98 4 -3 4 C-3 5.98 -3 7.96 -3 10 C-3.66 10 -4.32 10 -5 10 C-5 7.36 -5 4.72 -5 2 C-3.35 2 -1.7 2 0 2 C0 1.34 0 0.68 0 0 Z " fill="#EFDAC5" transform="translate(60,111)"/>
<path d="M0 0 C0.66 0 1.32 0 2 0 C2 1.32 2 2.64 2 4 C3.65 4.33 5.3 4.66 7 5 C7 7.31 7 9.62 7 12 C6.01 12 5.02 12 4 12 C4 10.02 4 8.04 4 6 C3.34 6 2.68 6 2 6 C2 7.98 2 9.96 2 12 C1.34 12 0.68 12 0 12 C0 8.04 0 4.08 0 0 Z " fill="#EEECEA" transform="translate(67,109)"/>
<path d="M0 0 C0.99 0.33 1.98 0.66 3 1 C1.515 3.475 1.515 3.475 0 6 C2.9042893 5.89207179 2.9042893 5.89207179 6 5 C7.84434349 2.53884453 7.84434349 2.53884453 9 0 C9.33 0 9.66 0 10 0 C10.2734375 2.29296875 10.2734375 2.29296875 10 5 C8.1015625 6.80078125 8.1015625 6.80078125 5.625 8.3125 C4.81289062 8.82425781 4.00078125 9.33601563 3.1640625 9.86328125 C1 11 1 11 -1 11 C-1.02688151 9.35425434 -1.04634123 7.70838587 -1.0625 6.0625 C-1.07410156 5.14597656 -1.08570312 4.22945313 -1.09765625 3.28515625 C-1 1 -1 1 0 0 Z " fill="#EA9242" transform="translate(91,82)"/>
<path d="M0 0 C2.5 0.125 2.5 0.125 3.5 1.125 C3.6875 3.5625 3.6875 3.5625 3.5 6.125 C2.84 6.785 2.18 7.445 1.5 8.125 C-1.125 7.75 -1.125 7.75 -3.5 7.125 C-3.54254356 5.12545254 -3.54080783 3.12458364 -3.5 1.125 C-2.5 0.125 -2.5 0.125 0 0 Z " fill="#EFD8C0" transform="translate(123.5,112.875)"/>
<path d="M0 0 C1.2065625 0.0309375 1.2065625 0.0309375 2.4375 0.0625 C3.03482819 2.82514289 3.4375 5.22282769 3.4375 8.0625 C1.0625 8.1875 1.0625 8.1875 -1.5625 8.0625 C-3.5625 6.0625 -3.5625 6.0625 -3.75 3.5 C-3.4919783 0.14571793 -3.38163728 0.08247896 0 0 Z " fill="#EEE2D4" transform="translate(177.5625,112.9375)"/>
<path d="M0 0 C1.65 0 3.3 0 5 0 C5.59732819 2.76264289 6 5.16032769 6 8 C3.625 8.125 3.625 8.125 1 8 C0.34 7.34 -0.32 6.68 -1 6 C-0.625 2.875 -0.625 2.875 0 0 Z " fill="#EEE3D6" transform="translate(47,113)"/>
<path d="M0 0 C1.99954746 -0.04254356 4.00041636 -0.04080783 6 0 C7 1 7 1 7.0625 4.5625 C7.041875 5.696875 7.02125 6.83125 7 8 C6.34 8 5.68 8 5 8 C5 6.02 5 4.04 5 2 C4.34 2 3.68 2 3 2 C3 3.98 3 5.96 3 8 C2.01 8 1.02 8 0 8 C0 5.36 0 2.72 0 0 Z " fill="#EEE2D5" transform="translate(79,113)"/>
<path d="M0 0 C0.33 0.66 0.66 1.32 1 2 C0.22265625 3.9453125 0.22265625 3.9453125 -0.9375 6.125 C-1.31777344 6.84945312 -1.69804688 7.57390625 -2.08984375 8.3203125 C-2.54037109 9.15175781 -2.54037109 9.15175781 -3 10 C-5.5 7.6875 -5.5 7.6875 -8 5 C-8 4.01 -8 3.02 -8 2 C-5.36 1.34 -2.72 0.68 0 0 Z " fill="#6F3A7E" transform="translate(116,75)"/>
<path d="M0 0 C1.67542976 0.28604898 3.34385343 0.61781233 5 1 C5 1.99 5 2.98 5 4 C3.68 4 2.36 4 1 4 C1 4.66 1 5.32 1 6 C2.32 6 3.64 6 5 6 C5 6.66 5 7.32 5 8 C2.625 8.125 2.625 8.125 0 8 C-0.66 7.34 -1.32 6.68 -2 6 C-1.44444444 1.44444444 -1.44444444 1.44444444 0 0 Z " fill="#EEE3D7" transform="translate(155,113)"/>
<path d="M0 0 C1.2065625 0.0309375 1.2065625 0.0309375 2.4375 0.0625 C2.7675 1.3825 3.0975 2.7025 3.4375 4.0625 C1.7875 4.0625 0.1375 4.0625 -1.5625 4.0625 C-1.5625 4.7225 -1.5625 5.3825 -1.5625 6.0625 C-0.2425 6.0625 1.0775 6.0625 2.4375 6.0625 C2.4375 6.7225 2.4375 7.3825 2.4375 8.0625 C-0.5325 7.5675 -0.5325 7.5675 -3.5625 7.0625 C-3.60504356 5.06295254 -3.60330783 3.06208364 -3.5625 1.0625 C-2.5625 0.0625 -2.5625 0.0625 0 0 Z " fill="#EEEAE6" transform="translate(29.5625,112.9375)"/>
<path d="M0 0 C1.98 0 3.96 0 6 0 C4.68 0.33 3.36 0.66 2 1 C2 1.99 2 2.98 2 4 C3.32 4.33 4.64 4.66 6 5 C4.68 5 3.36 5 2 5 C2 5.99 2 6.98 2 8 C3.65 8 5.3 8 7 8 C7 8.66 7 9.32 7 10 C4.69 10 2.38 10 0 10 C0 6.7 0 3.4 0 0 Z " fill="#EEECEA" transform="translate(100,111)"/>
<path d="M0 0 C0.99 0 1.98 0 3 0 C3.33 3.96 3.66 7.92 4 12 C2.68 11.67 1.36 11.34 0 11 C0 7.37 0 3.74 0 0 Z " fill="#EFD8C1" transform="translate(34,109)"/>
<path d="M0 0 C1.32 0 2.64 0 4 0 C4.38063221 2.3260857 4.71269945 4.66055264 5 7 C4 8 4 8 1.4375 8.0625 C0.633125 8.041875 -0.17125 8.02125 -1 8 C-1 7.34 -1 6.68 -1 6 C-0.34 5.67 0.32 5.34 1 5 C0.34 4.67 -0.32 4.34 -1 4 C-0.67 2.68 -0.34 1.36 0 0 Z " fill="#EEE2D6" transform="translate(20,113)"/>
<path d="M0 0 C1.98 0.99 1.98 0.99 4 2 C4.33 1.34 4.66 0.68 5 0 C5.66 0 6.32 0 7 0 C6.125 5.75 6.125 5.75 5 8 C4.01 7.67 3.02 7.34 2 7 C0.8125 3.4375 0.8125 3.4375 0 0 Z " fill="#EEE5DB" transform="translate(38,113)"/>
<path d="M0 0 C1.2065625 0.0309375 1.2065625 0.0309375 2.4375 0.0625 C2.4375 0.7225 2.4375 1.3825 2.4375 2.0625 C1.1175 2.0625 -0.2025 2.0625 -1.5625 2.0625 C-1.2325 3.0525 -0.9025 4.0425 -0.5625 5.0625 C0.4275 5.3925 1.4175 5.7225 2.4375 6.0625 C2.4375 6.7225 2.4375 7.3825 2.4375 8.0625 C-0.5325 7.5675 -0.5325 7.5675 -3.5625 7.0625 C-3.60504356 5.06295254 -3.60330783 3.06208364 -3.5625 1.0625 C-2.5625 0.0625 -2.5625 0.0625 0 0 Z " fill="#EEE5DA" transform="translate(116.5625,112.9375)"/>
<path d="M0 0 C1.32 0 2.64 0 4 0 C4 0.66 4 1.32 4 2 C3.01 2 2.02 2 1 2 C1 3.32 1 4.64 1 6 C1.99 6 2.98 6 4 6 C4 6.66 4 7.32 4 8 C2.35 7.67 0.7 7.34 -1 7 C-1.625 4.625 -1.625 4.625 -2 2 C-1.34 1.34 -0.68 0.68 0 0 Z " fill="#EEE4D9" transform="translate(169,113)"/>
<path d="M0 0 C0 3.10551666 -0.5393715 4.35261084 -2 7 C-3.98 7 -5.96 7 -8 7 C-7.6875 5.0625 -7.6875 5.0625 -7 3 C-6.01 2.67 -5.02 2.34 -4 2 C-3.67 2.66 -3.34 3.32 -3 4 C-2.67 3.01 -2.34 2.02 -2 1 C-1.34 0.67 -0.68 0.34 0 0 Z " fill="#804676" transform="translate(99,81)"/>
<path d="M0 0 C0.66 0 1.32 0 2 0 C2 0.66 2 1.32 2 2 C2.66 2 3.32 2 4 2 C4 2.66 4 3.32 4 4 C3.34 4 2.68 4 2 4 C2 5.32 2 6.64 2 8 C2.66 8 3.32 8 4 8 C4 8.66 4 9.32 4 10 C2.68 9.67 1.36 9.34 0 9 C0 6.03 0 3.06 0 0 Z " fill="#EEE9E2" transform="translate(61,111)"/>
<path d="M0 0 C0.33 0 0.66 0 1 0 C1 3.63 1 7.26 1 11 C0.34 11 -0.32 11 -1 11 C-1 10.34 -1 9.68 -1 9 C-1.66 9 -2.32 9 -3 9 C-3 7.68 -3 6.36 -3 5 C-2.34 5 -1.68 5 -1 5 C-0.67 3.35 -0.34 1.7 0 0 Z " fill="#F1A85D" transform="translate(66,110)"/>
<path d="M0 0 C2 1 2 1 2.625 2.625 C3.12095645 5.7660575 3.06103811 8.82601831 3 12 C0 10 0 10 -0.546875 8.125 C-0.61390625 7.42375 -0.6809375 6.7225 -0.75 6 C-0.82734375 5.29875 -0.9046875 4.5975 -0.984375 3.875 C-1 2 -1 2 0 0 Z " fill="#7B4279" transform="translate(116,80)"/>
<path d="M0 0 C0.99 0.33 1.98 0.66 3 1 C3 3.31 3 5.62 3 8 C2.01 8 1.02 8 0 8 C0 6.02 0 4.04 0 2 C-0.66 1.67 -1.32 1.34 -2 1 C-1.34 0.67 -0.68 0.34 0 0 Z " fill="#EFD5BB" transform="translate(71,113)"/>
<path d="M0 0 C1.37432457 3.81756824 0.67975039 7.07255329 0 11 C-1.5625 9.9375 -1.5625 9.9375 -3 8 C-2.8125 4.375 -2.8125 4.375 -2 1 C-1.34 0.67 -0.68 0.34 0 0 Z " fill="#7E4477" transform="translate(85,80)"/>
<path d="M0 0 C0.99 0 1.98 0 3 0 C3 2.64 3 5.28 3 8 C2.01 8 1.02 8 0 8 C0 5.36 0 2.72 0 0 Z " fill="#EFD8C1" transform="translate(75,113)"/>
<path d="M0 0 C1.98 0 3.96 0 6 0 C4.02 0.99 4.02 0.99 2 2 C2 3.98 2 5.96 2 8 C1.34 8 0.68 8 0 8 C0 5.36 0 2.72 0 0 Z " fill="#EEEBE8" transform="translate(141,113)"/>
<path d="M0 0 C2.97 0.495 2.97 0.495 6 1 C5.67 1.99 5.34 2.98 5 4 C3.02 4 1.04 4 -1 4 C-0.67 2.68 -0.34 1.36 0 0 Z " fill="#F0B980" transform="translate(96,125)"/>
<path d="M0 0 C1.65 0 3.3 0 5 0 C4.67 0.66 4.34 1.32 4 2 C3.34 2 2.68 2 2 2 C2 3.98 2 5.96 2 8 C1.34 8 0.68 8 0 8 C0 5.36 0 2.72 0 0 Z " fill="#EEEBE7" transform="translate(162,113)"/>
<path d="M0 0 C-0.33 0.99 -0.66 1.98 -1 3 C-2.98 3 -4.96 3 -7 3 C-7 2.01 -7 1.02 -7 0 C-3.86650268 -1.04449911 -3.01031744 -0.93423645 0 0 Z " fill="#F0BD8A" transform="translate(93,126)"/>
<path d="M0 0 C1.41377341 2.63904371 2.37240135 5.07120629 3 8 C2.01 8.33 1.02 8.66 0 9 C-0.87890625 2.84765625 -0.87890625 2.84765625 -1 1 C-0.67 0.67 -0.34 0.34 0 0 Z " fill="#733D7C" transform="translate(83,87)"/>
<path d="M0 0 C1.65 0 3.3 0 5 0 C5 1.32 5 2.64 5 4 C3.35 3.67 1.7 3.34 0 3 C0 2.01 0 1.02 0 0 Z " fill="#F2A252" transform="translate(115,115)"/>
<path d="M0 0 C1.65 0 3.3 0 5 0 C5.33 1.32 5.66 2.64 6 4 C4.35 3.67 2.7 3.34 1 3 C0.67 2.01 0.34 1.02 0 0 Z " fill="#EFDAC4" transform="translate(27,113)"/>
<path d="M0 0 C1.65 0 3.3 0 5 0 C5 1.32 5 2.64 5 4 C3.35 4 1.7 4 0 4 C-0.33 3.34 -0.66 2.68 -1 2 C-0.67 1.34 -0.34 0.68 0 0 Z " fill="#EEDAC5" transform="translate(176,117)"/>
<path d="M0 0 C1.65 0 3.3 0 5 0 C5 1.32 5 2.64 5 4 C3.35 4 1.7 4 0 4 C-0.33 3.34 -0.66 2.68 -1 2 C-0.67 1.34 -0.34 0.68 0 0 Z " fill="#EEDAC5" transform="translate(48,117)"/>
<path d="M0 0 C0.33 0 0.66 0 1 0 C0.67 2.64 0.34 5.28 0 8 C-0.99 8 -1.98 8 -3 8 C-1.125 1.125 -1.125 1.125 0 0 Z " fill="#6B3681" transform="translate(117,89)"/>
</svg>
